<svg width="435" height="388" viewBox="0 0 435 388" xmlns="http://www.w3.org/2000/svg">
    <path d="M238.882 349.262c-7.224-13.844 5.083-34.554 12.599-43.57 8.758-10.507 17.859-14.453 69.552-30.159 73.174-22.232 74.038-34.835 74.407-40.216l.036-.502c.106-1.364.434-8.343-3.64-11.751-3.105-2.598-5.116-2.902-6.317-3.083-.84-.128-1.992-.3-2.302-1.59-.364-1.516 1.237-2.175 3.263-3.01 2.952-1.214 7.891-3.248 10.85-8.257 2.232-3.777 2.675-9.26 1.155-14.308-1.124-3.73-3.137-6.535-5.526-7.695-3.303-1.605-6.212-1.306-7.95-1.127-1.233.127-2.397.247-2.826-.846a1.277 1.277 0 0 1 .037-1.022c.348-.736 1.168-1.001 3.36-1.71 4.26-1.379 12.19-3.945 14.263-10.002 2.337-6.836-2.485-16.969-9.214-19.36-4.307-1.532-6.88-1.397-8.263-1.324-.982.051-2.097.11-2.57-.965-.596-1.348.824-2.01 1.673-2.407 1.783-.832 5.103-2.381 7.077-7.86 2.006-5.566-.371-12.413-3.626-16.028-6.008-6.674-17.492-5.6-51.29 1.276-35.307 7.184-53.028 10.79-65.153 14.768-12.286 4.032-21.502 7.774-28.231 10.506-12.34 5.01-17.975 7.298-22.702 3.524-5.006-3.996-3.962-11.031-2.383-21.68 1.648-11.11 3.904-26.327 1.04-46.965-3.88-27.98-12.93-33.629-15.903-35.486-7.128-4.45-18.214-6.187-22.721-1.568-2.542 2.605-1.832 6.66-.757 12.798.65 3.713 1.459 8.335 1.698 13.773.533 12.137-2.03 20.407-5 29.984-.58 1.872-1.176 3.792-1.763 5.796-5.27 17.96-6.226 30.682-7.239 44.15-.816 10.859-1.66 22.086-4.671 37.275-7.281 36.72-20.058 63.68-29.495 79.83-8.272 14.159-28.81 47.804-67.676 73.277-2.229 1.461-2.709-.992-.115-2.72 37.705-25.117 57.707-57.852 65.807-71.716 9.348-15.998 22.006-42.711 29.224-79.117 2.985-15.053 3.824-26.21 4.635-37 1.022-13.594 1.987-26.433 7.324-44.626.592-2.016 1.19-3.947 1.774-5.83 2.906-9.371 5.415-17.465 4.9-29.202-.233-5.289-.995-9.64-1.667-13.478-1.154-6.59-1.988-11.352 1.376-14.799 5.35-5.482 17.548-3.793 25.583 1.224 5.552 3.467 13.351 11.086 16.963 37.118 2.908 20.966.624 36.37-1.044 47.618-1.514 10.213-2.428 16.377 1.544 19.548 3.675 2.934 8.918.805 20.403-3.857 6.76-2.745 16.019-6.504 28.38-10.56 12.25-4.02 30.016-7.636 65.41-14.837 33.102-6.735 46.286-8.529 53.457-.562 3.701 4.112 6.389 11.938 4.08 18.344-1.67 4.635-4.254 6.895-6.287 8.132 1.648.07 3.926.394 6.978 1.48 7.9 2.809 13.359 14.255 10.617 22.27-2.004 5.862-8.181 8.797-12.898 10.491a14.76 14.76 0 0 1 4.846 1.405c2.963 1.44 5.414 4.757 6.72 9.1 1.7 5.642 1.173 11.827-1.375 16.14-3.35 5.671-8.736 7.888-11.953 9.213-.249.102-.514.212-.77.32 1.438.27 3.693.938 6.724 3.475 4.815 4.027 4.63 11.499 4.457 13.692l-.034.48c-.213 3.095-.568 8.276-10.524 15.333-11.505 8.154-33.544 17.214-65.507 26.925-51.123 15.533-60.08 19.383-68.456 29.432-8.34 10.005-18.508 29.19-12.326 41.035l-2.038 1.063z" fill="#000" fill-rule="evenodd"/>
</svg>
