<svg width="142" height="134" viewBox="0 0 142 134" xmlns="http://www.w3.org/2000/svg">
    <path d="M85.961 111.513c-2.919-3.663-.48-10.464 1.216-13.549 1.977-3.595 4.431-5.277 18.751-12.86 20.271-10.733 19.804-14.492 19.605-16.098l-.018-.15c-.047-.407-.35-2.48-1.744-3.251-1.063-.587-1.672-.562-2.036-.546-.255.01-.604.025-.77-.337-.193-.425.24-.71.79-1.072.8-.527 2.137-1.408 2.721-3.052.441-1.24.258-2.88-.479-4.279-.544-1.034-1.297-1.744-2.067-1.95-1.064-.283-1.904-.028-2.405.124-.356.108-.691.21-.88-.087a.383.383 0 0 1-.048-.304c.06-.236.287-.361.892-.695 1.175-.65 3.363-1.86 3.626-3.761.297-2.147-1.702-4.854-3.82-5.173-1.356-.204-2.106-.017-2.509.083-.286.072-.61.153-.812-.137-.252-.362.128-.639.355-.804.477-.347 1.366-.993 1.634-2.72.272-1.753-.82-3.632-1.985-4.51-2.15-1.622-5.47-.648-15.027 3.31-9.984 4.136-14.995 6.212-18.337 8.077-3.387 1.89-5.886 3.52-7.71 4.709-3.347 2.18-4.875 3.177-6.483 2.336-1.702-.89-1.798-3.02-1.942-6.246-.15-3.366-.357-7.975-2.381-13.887-2.744-8.015-5.732-9.16-6.713-9.537-2.354-.902-5.717-.78-6.78.838-.599.913-.158 2.066.51 3.811.404 1.057.907 2.371 1.288 3.958.852 3.543.57 6.125.244 9.114-.064.585-.13 1.184-.187 1.808-.524 5.589-.077 9.389.395 13.412.381 3.244.775 6.598.758 11.242-.042 11.227-2.261 19.896-4.115 25.19-1.625 4.643-5.747 15.724-15.731 25.448-.573.557-.855-.138-.19-.795 9.664-9.552 13.679-20.335 15.27-24.88 1.837-5.245 4.035-13.834 4.077-24.966.017-4.602-.375-7.935-.753-11.158-.477-4.06-.928-7.896-.398-13.558.059-.627.125-1.23.189-1.818.319-2.925.595-5.452-.229-8.878-.371-1.543-.844-2.78-1.262-3.872-.717-1.875-1.235-3.229-.442-4.436 1.261-1.92 4.95-2.121 7.602-1.104 1.833.703 4.566 2.5 7.119 9.958 2.056 6.006 2.265 10.672 2.417 14.079.139 3.093.223 4.96 1.574 5.666 1.25.654 2.671-.273 5.786-2.303 1.833-1.195 4.344-2.831 7.751-4.733 3.376-1.885 8.4-3.966 18.409-8.111 9.36-3.878 13.139-5.16 15.706-3.225 1.325.999 2.564 3.149 2.25 5.167-.226 1.46-.857 2.274-1.385 2.754.49-.073 1.179-.108 2.14.037 2.486.374 4.748 3.432 4.4 5.948-.255 1.841-1.906 3.059-3.198 3.828a4.427 4.427 0 0 1 1.508.136c.955.254 1.866 1.09 2.5 2.294.822 1.564 1.021 3.415.518 4.83-.662 1.862-2.12 2.823-2.992 3.397l-.209.139c.44-.003 1.142.064 2.18.638 1.647.91 2.02 3.12 2.095 3.776l.017.143c.115.924.307 2.47-2.22 5.117-2.921 3.059-8.891 6.987-17.746 11.676-14.162 7.498-16.579 9.145-18.47 12.582-1.883 3.423-3.778 9.654-1.28 12.787l-.54.43z" fill="#000" stroke="#000" fill-rule="evenodd"/>
</svg>
